<svg width="1440" height="764" viewBox="0 0 1440 764" fill="none" xmlns="http://www.w3.org/2000/svg">
    <rect width="1440" height="764" fill="black" fill-opacity="0.55"/>
    <path d="M238.08 268L229.2 234.4H235.776L241.824 261.136L248.928 234.4H255.696L262.608 261.136L268.656 234.4H275.28L266.16 268H258.864L252.192 243.088L245.328 268H238.08ZM288.626 268.576C286.226 268.576 284.098 268.064 282.242 267.04C280.386 266.016 278.93 264.576 277.874 262.72C276.818 260.864 276.29 258.72 276.29 256.288C276.29 253.824 276.802 251.632 277.826 249.712C278.882 247.792 280.322 246.304 282.146 245.248C284.002 244.16 286.178 243.616 288.674 243.616C291.01 243.616 293.074 244.128 294.866 245.152C296.658 246.176 298.05 247.584 299.042 249.376C300.066 251.136 300.578 253.104 300.578 255.28C300.578 255.632 300.562 256 300.53 256.384C300.53 256.768 300.514 257.168 300.482 257.584H282.386C282.514 259.44 283.154 260.896 284.306 261.952C285.49 263.008 286.914 263.536 288.578 263.536C289.826 263.536 290.866 263.264 291.698 262.72C292.562 262.144 293.202 261.408 293.618 260.512H299.858C299.41 262.016 298.658 263.392 297.602 264.64C296.578 265.856 295.298 266.816 293.762 267.52C292.258 268.224 290.546 268.576 288.626 268.576ZM288.674 248.608C287.17 248.608 285.842 249.04 284.69 249.904C283.538 250.736 282.802 252.016 282.482 253.744H294.338C294.242 252.176 293.666 250.928 292.61 250C291.554 249.072 290.242 248.608 288.674 248.608ZM305.745 268V233.44H311.889V268H305.745ZM329.831 268.576C327.399 268.576 325.255 268.048 323.399 266.992C321.543 265.936 320.071 264.464 318.983 262.576C317.927 260.688 317.399 258.528 317.399 256.096C317.399 253.664 317.927 251.504 318.983 249.616C320.071 247.728 321.543 246.256 323.399 245.2C325.255 244.144 327.399 243.616 329.831 243.616C332.871 243.616 335.431 244.416 337.511 246.016C339.591 247.584 340.919 249.76 341.495 252.544H335.015C334.695 251.392 334.055 250.496 333.095 249.856C332.167 249.184 331.063 248.848 329.783 248.848C328.087 248.848 326.647 249.488 325.463 250.768C324.279 252.048 323.687 253.824 323.687 256.096C323.687 258.368 324.279 260.144 325.463 261.424C326.647 262.704 328.087 263.344 329.783 263.344C331.063 263.344 332.167 263.024 333.095 262.384C334.055 261.744 334.695 260.832 335.015 259.648H341.495C340.919 262.336 339.591 264.496 337.511 266.128C335.431 267.76 332.871 268.576 329.831 268.576ZM358.372 268.576C356.068 268.576 353.988 268.048 352.132 266.992C350.308 265.936 348.852 264.48 347.764 262.624C346.708 260.736 346.18 258.56 346.18 256.096C346.18 253.632 346.724 251.472 347.812 249.616C348.9 247.728 350.356 246.256 352.18 245.2C354.036 244.144 356.116 243.616 358.42 243.616C360.692 243.616 362.74 244.144 364.564 245.2C366.42 246.256 367.876 247.728 368.932 249.616C370.02 251.472 370.564 253.632 370.564 256.096C370.564 258.56 370.02 260.736 368.932 262.624C367.876 264.48 366.42 265.936 364.564 266.992C362.708 268.048 360.644 268.576 358.372 268.576ZM358.372 263.248C359.972 263.248 361.364 262.656 362.548 261.472C363.732 260.256 364.324 258.464 364.324 256.096C364.324 253.728 363.732 251.952 362.548 250.768C361.364 249.552 359.988 248.944 358.42 248.944C356.788 248.944 355.38 249.552 354.196 250.768C353.044 251.952 352.468 253.728 352.468 256.096C352.468 258.464 353.044 260.256 354.196 261.472C355.38 262.656 356.772 263.248 358.372 263.248ZM376.058 268V244.192H381.482L382.01 247.408C382.778 246.256 383.786 245.344 385.034 244.672C386.314 243.968 387.786 243.616 389.45 243.616C393.13 243.616 395.738 245.04 397.274 247.888C398.138 246.576 399.29 245.536 400.73 244.768C402.202 244 403.802 243.616 405.53 243.616C408.634 243.616 411.018 244.544 412.682 246.4C414.346 248.256 415.178 250.976 415.178 254.56V268H409.034V255.136C409.034 253.088 408.634 251.52 407.834 250.432C407.066 249.344 405.866 248.8 404.234 248.8C402.57 248.8 401.226 249.408 400.202 250.624C399.21 251.84 398.714 253.536 398.714 255.712V268H392.57V255.136C392.57 253.088 392.17 251.52 391.37 250.432C390.57 249.344 389.338 248.8 387.674 248.8C386.042 248.8 384.714 249.408 383.69 250.624C382.698 251.84 382.202 253.536 382.202 255.712V268H376.058ZM432.579 268.576C430.179 268.576 428.051 268.064 426.195 267.04C424.339 266.016 422.883 264.576 421.827 262.72C420.771 260.864 420.243 258.72 420.243 256.288C420.243 253.824 420.755 251.632 421.779 249.712C422.835 247.792 424.275 246.304 426.099 245.248C427.955 244.16 430.131 243.616 432.627 243.616C434.963 243.616 437.027 244.128 438.819 245.152C440.611 246.176 442.003 247.584 442.995 249.376C444.019 251.136 444.531 253.104 444.531 255.28C444.531 255.632 444.515 256 444.483 256.384C444.483 256.768 444.467 257.168 444.435 257.584H426.339C426.467 259.44 427.107 260.896 428.259 261.952C429.443 263.008 430.867 263.536 432.531 263.536C433.779 263.536 434.819 263.264 435.651 262.72C436.515 262.144 437.155 261.408 437.571 260.512H443.811C443.363 262.016 442.611 263.392 441.555 264.64C440.531 265.856 439.251 266.816 437.715 267.52C436.211 268.224 434.499 268.576 432.579 268.576ZM432.627 248.608C431.123 248.608 429.795 249.04 428.643 249.904C427.491 250.736 426.755 252.016 426.435 253.744H438.291C438.195 252.176 437.619 250.928 436.563 250C435.507 249.072 434.195 248.608 432.627 248.608ZM471.744 268C469.248 268 467.248 267.392 465.744 266.176C464.24 264.96 463.488 262.8 463.488 259.696V249.328H459.408V244.192H463.488L464.208 237.808H469.632V244.192H476.064V249.328H469.632V259.744C469.632 260.896 469.872 261.696 470.352 262.144C470.864 262.56 471.728 262.768 472.944 262.768H475.92V268H471.744ZM492.153 268.576C489.849 268.576 487.769 268.048 485.913 266.992C484.089 265.936 482.633 264.48 481.545 262.624C480.489 260.736 479.961 258.56 479.961 256.096C479.961 253.632 480.505 251.472 481.593 249.616C482.681 247.728 484.137 246.256 485.961 245.2C487.817 244.144 489.897 243.616 492.201 243.616C494.473 243.616 496.521 244.144 498.345 245.2C500.201 246.256 501.657 247.728 502.713 249.616C503.801 251.472 504.345 253.632 504.345 256.096C504.345 258.56 503.801 260.736 502.713 262.624C501.657 264.48 500.201 265.936 498.345 266.992C496.489 268.048 494.425 268.576 492.153 268.576ZM492.153 263.248C493.753 263.248 495.145 262.656 496.329 261.472C497.513 260.256 498.105 258.464 498.105 256.096C498.105 253.728 497.513 251.952 496.329 250.768C495.145 249.552 493.769 248.944 492.201 248.944C490.569 248.944 489.161 249.552 487.977 250.768C486.825 251.952 486.249 253.728 486.249 256.096C486.249 258.464 486.825 260.256 487.977 261.472C489.161 262.656 490.553 263.248 492.153 263.248ZM536.636 268.576C533.244 268.576 530.332 267.856 527.9 266.416C525.468 264.944 523.596 262.912 522.284 260.32C520.972 257.696 520.316 254.672 520.316 251.248C520.316 247.824 520.972 244.8 522.284 242.176C523.596 239.552 525.468 237.504 527.9 236.032C530.332 234.56 533.244 233.824 536.636 233.824C540.668 233.824 543.964 234.832 546.524 236.848C549.116 238.832 550.732 241.632 551.372 245.248H544.604C544.188 243.424 543.292 242 541.916 240.976C540.572 239.92 538.78 239.392 536.54 239.392C533.436 239.392 531.004 240.448 529.244 242.56C527.484 244.672 526.604 247.568 526.604 251.248C526.604 254.928 527.484 257.824 529.244 259.936C531.004 262.016 533.436 263.056 536.54 263.056C538.78 263.056 540.572 262.576 541.916 261.616C543.292 260.624 544.188 259.264 544.604 257.536H551.372C550.732 260.992 549.116 263.696 546.524 265.648C543.964 267.6 540.668 268.576 536.636 268.576ZM556.667 268V233.44H562.811V247.84C563.611 246.528 564.683 245.504 566.027 244.768C567.403 244 568.971 243.616 570.731 243.616C573.675 243.616 575.947 244.544 577.547 246.4C579.179 248.256 579.995 250.976 579.995 254.56V268H573.899V255.136C573.899 253.088 573.483 251.52 572.651 250.432C571.851 249.344 570.571 248.8 568.811 248.8C567.083 248.8 565.643 249.408 564.491 250.624C563.371 251.84 562.811 253.536 562.811 255.712V268H556.667ZM594.078 268.576C592.03 268.576 590.35 268.256 589.038 267.616C587.726 266.944 586.75 266.064 586.11 264.976C585.47 263.888 585.15 262.688 585.15 261.376C585.15 259.168 586.014 257.376 587.742 256C589.47 254.624 592.062 253.936 595.518 253.936H601.566V253.36C601.566 251.728 601.102 250.528 600.174 249.76C599.246 248.992 598.094 248.608 596.718 248.608C595.47 248.608 594.382 248.912 593.454 249.52C592.526 250.096 591.95 250.96 591.726 252.112H585.726C585.886 250.384 586.462 248.88 587.454 247.6C588.478 246.32 589.79 245.344 591.39 244.672C592.99 243.968 594.782 243.616 596.766 243.616C600.158 243.616 602.83 244.464 604.782 246.16C606.734 247.856 607.71 250.256 607.71 253.36V268H602.478L601.902 264.16C601.198 265.44 600.206 266.496 598.926 267.328C597.678 268.16 596.062 268.576 594.078 268.576ZM595.47 263.776C597.23 263.776 598.59 263.2 599.55 262.048C600.542 260.896 601.166 259.472 601.422 257.776H596.19C594.558 257.776 593.39 258.08 592.686 258.688C591.982 259.264 591.63 259.984 591.63 260.848C591.63 261.776 591.982 262.496 592.686 263.008C593.39 263.52 594.318 263.776 595.47 263.776ZM623.853 268C621.357 268 619.357 267.392 617.853 266.176C616.349 264.96 615.597 262.8 615.597 259.696V249.328H611.517V244.192H615.597L616.317 237.808H621.741V244.192H628.173V249.328H621.741V259.744C621.741 260.896 621.981 261.696 622.461 262.144C622.973 262.56 623.837 262.768 625.053 262.768H628.029V268H623.853ZM644.056 268C641.56 268 639.56 267.392 638.056 266.176C636.552 264.96 635.8 262.8 635.8 259.696V249.328H631.72V244.192H635.8L636.52 237.808H641.944V244.192H648.376V249.328H641.944V259.744C641.944 260.896 642.184 261.696 642.664 262.144C643.176 262.56 644.04 262.768 645.256 262.768H648.232V268H644.056ZM664.61 268.576C662.21 268.576 660.082 268.064 658.226 267.04C656.37 266.016 654.914 264.576 653.858 262.72C652.802 260.864 652.274 258.72 652.274 256.288C652.274 253.824 652.786 251.632 653.81 249.712C654.866 247.792 656.306 246.304 658.13 245.248C659.986 244.16 662.162 243.616 664.658 243.616C666.994 243.616 669.058 244.128 670.85 245.152C672.642 246.176 674.034 247.584 675.026 249.376C676.05 251.136 676.562 253.104 676.562 255.28C676.562 255.632 676.546 256 676.514 256.384C676.514 256.768 676.498 257.168 676.466 257.584H658.37C658.498 259.44 659.138 260.896 660.29 261.952C661.474 263.008 662.898 263.536 664.562 263.536C665.81 263.536 666.85 263.264 667.682 262.72C668.546 262.144 669.186 261.408 669.602 260.512H675.842C675.394 262.016 674.642 263.392 673.586 264.64C672.562 265.856 671.282 266.816 669.746 267.52C668.242 268.224 666.53 268.576 664.61 268.576ZM664.658 248.608C663.154 248.608 661.826 249.04 660.674 249.904C659.522 250.736 658.786 252.016 658.466 253.744H670.322C670.226 252.176 669.65 250.928 668.594 250C667.538 249.072 666.226 248.608 664.658 248.608ZM681.729 268V244.192H687.201L687.777 248.656C688.641 247.12 689.809 245.904 691.281 245.008C692.785 244.08 694.545 243.616 696.561 243.616V250.096H694.833C693.489 250.096 692.289 250.304 691.233 250.72C690.177 251.136 689.345 251.856 688.737 252.88C688.161 253.904 687.873 255.328 687.873 257.152V268H681.729ZM703.823 268.336C702.703 268.336 701.775 267.984 701.039 267.28C700.335 266.576 699.983 265.728 699.983 264.736C699.983 263.712 700.335 262.848 701.039 262.144C701.775 261.44 702.703 261.088 703.823 261.088C704.943 261.088 705.855 261.44 706.559 262.144C707.295 262.848 707.663 263.712 707.663 264.736C707.663 265.728 707.295 266.576 706.559 267.28C705.855 267.984 704.943 268.336 703.823 268.336ZM703.823 250.864C702.703 250.864 701.775 250.512 701.039 249.808C700.335 249.104 699.983 248.256 699.983 247.264C699.983 246.24 700.335 245.376 701.039 244.672C701.775 243.968 702.703 243.616 703.823 243.616C704.943 243.616 705.855 243.968 706.559 244.672C707.295 245.376 707.663 246.24 707.663 247.264C707.663 248.256 707.295 249.104 706.559 249.808C705.855 250.512 704.943 250.864 703.823 250.864ZM722.229 268L734.517 234.4H741.429L753.717 268H747.189L744.501 260.224H731.397L728.661 268H722.229ZM733.077 255.424H742.821L737.925 241.456L733.077 255.424ZM769.483 268V234.4H775.627V248.368H790.699V234.4H796.843V268H790.699V253.36H775.627V268H769.483ZM811.437 268.576C809.389 268.576 807.709 268.256 806.397 267.616C805.085 266.944 804.109 266.064 803.469 264.976C802.829 263.888 802.509 262.688 802.509 261.376C802.509 259.168 803.373 257.376 805.101 256C806.829 254.624 809.421 253.936 812.877 253.936H818.925V253.36C818.925 251.728 818.461 250.528 817.533 249.76C816.605 248.992 815.453 248.608 814.077 248.608C812.829 248.608 811.741 248.912 810.813 249.52C809.885 250.096 809.309 250.96 809.085 252.112H803.085C803.245 250.384 803.821 248.88 804.813 247.6C805.837 246.32 807.149 245.344 808.749 244.672C810.349 243.968 812.141 243.616 814.125 243.616C817.517 243.616 820.189 244.464 822.141 246.16C824.093 247.856 825.069 250.256 825.069 253.36V268H819.837L819.261 264.16C818.557 265.44 817.565 266.496 816.285 267.328C815.037 268.16 813.421 268.576 811.437 268.576ZM812.829 263.776C814.589 263.776 815.949 263.2 816.909 262.048C817.901 260.896 818.525 259.472 818.781 257.776H813.549C811.917 257.776 810.749 258.08 810.045 258.688C809.341 259.264 808.989 259.984 808.989 260.848C808.989 261.776 809.341 262.496 810.045 263.008C810.749 263.52 811.677 263.776 812.829 263.776ZM836.661 268L827.925 244.192H834.357L840.405 262.192L846.453 244.192H852.885L844.101 268H836.661ZM867.157 268.576C864.757 268.576 862.629 268.064 860.773 267.04C858.917 266.016 857.461 264.576 856.405 262.72C855.349 260.864 854.821 258.72 854.821 256.288C854.821 253.824 855.333 251.632 856.357 249.712C857.413 247.792 858.853 246.304 860.677 245.248C862.533 244.16 864.709 243.616 867.205 243.616C869.541 243.616 871.605 244.128 873.397 245.152C875.189 246.176 876.581 247.584 877.573 249.376C878.597 251.136 879.109 253.104 879.109 255.28C879.109 255.632 879.093 256 879.061 256.384C879.061 256.768 879.045 257.168 879.013 257.584H860.917C861.045 259.44 861.685 260.896 862.837 261.952C864.021 263.008 865.445 263.536 867.109 263.536C868.357 263.536 869.397 263.264 870.229 262.72C871.093 262.144 871.733 261.408 872.149 260.512H878.389C877.941 262.016 877.189 263.392 876.133 264.64C875.109 265.856 873.829 266.816 872.293 267.52C870.789 268.224 869.077 268.576 867.157 268.576ZM867.205 248.608C865.701 248.608 864.373 249.04 863.221 249.904C862.069 250.736 861.333 252.016 861.013 253.744H872.869C872.773 252.176 872.197 250.928 871.141 250C870.085 249.072 868.773 248.608 867.205 248.608ZM884.276 268V244.192H889.7L890.18 248.224C890.916 246.816 891.972 245.696 893.348 244.864C894.756 244.032 896.404 243.616 898.292 243.616C901.236 243.616 903.524 244.544 905.156 246.4C906.788 248.256 907.604 250.976 907.604 254.56V268H901.46V255.136C901.46 253.088 901.044 251.52 900.212 250.432C899.38 249.344 898.084 248.8 896.324 248.8C894.596 248.8 893.172 249.408 892.052 250.624C890.964 251.84 890.42 253.536 890.42 255.712V268H884.276ZM926.021 268V249.328H922.757V244.192H926.021V241.408C926.021 238.528 926.741 236.48 928.181 235.264C929.653 234.048 931.637 233.44 934.133 233.44H936.773V238.672H935.093C934.037 238.672 933.285 238.88 932.837 239.296C932.389 239.712 932.165 240.416 932.165 241.408V244.192H937.301V249.328H932.165V268H926.021ZM952.653 268.576C950.349 268.576 948.269 268.048 946.413 266.992C944.589 265.936 943.133 264.48 942.045 262.624C940.989 260.736 940.461 258.56 940.461 256.096C940.461 253.632 941.005 251.472 942.093 249.616C943.181 247.728 944.637 246.256 946.461 245.2C948.317 244.144 950.397 243.616 952.701 243.616C954.973 243.616 957.021 244.144 958.845 245.2C960.701 246.256 962.157 247.728 963.213 249.616C964.301 251.472 964.845 253.632 964.845 256.096C964.845 258.56 964.301 260.736 963.213 262.624C962.157 264.48 960.701 265.936 958.845 266.992C956.989 268.048 954.925 268.576 952.653 268.576ZM952.653 263.248C954.253 263.248 955.645 262.656 956.829 261.472C958.013 260.256 958.605 258.464 958.605 256.096C958.605 253.728 958.013 251.952 956.829 250.768C955.645 249.552 954.269 248.944 952.701 248.944C951.069 248.944 949.661 249.552 948.477 250.768C947.325 251.952 946.749 253.728 946.749 256.096C946.749 258.464 947.325 260.256 948.477 261.472C949.661 262.656 951.053 263.248 952.653 263.248ZM970.339 268V244.192H975.811L976.387 248.656C977.251 247.12 978.419 245.904 979.891 245.008C981.395 244.08 983.155 243.616 985.171 243.616V250.096H983.443C982.099 250.096 980.899 250.304 979.843 250.72C978.787 251.136 977.955 251.856 977.347 252.88C976.771 253.904 976.483 255.328 976.483 257.152V268H970.339ZM1008.78 268V239.344H998.984V234.4H1024.76V239.344H1014.92V268H1008.78ZM1036.42 268.576C1034.02 268.576 1031.89 268.064 1030.04 267.04C1028.18 266.016 1026.73 264.576 1025.67 262.72C1024.61 260.864 1024.09 258.72 1024.09 256.288C1024.09 253.824 1024.6 251.632 1025.62 249.712C1026.68 247.792 1028.12 246.304 1029.94 245.248C1031.8 244.16 1033.97 243.616 1036.47 243.616C1038.81 243.616 1040.87 244.128 1042.66 245.152C1044.45 246.176 1045.85 247.584 1046.84 249.376C1047.86 251.136 1048.37 253.104 1048.37 255.28C1048.37 255.632 1048.36 256 1048.33 256.384C1048.33 256.768 1048.31 257.168 1048.28 257.584H1030.18C1030.31 259.44 1030.95 260.896 1032.1 261.952C1033.29 263.008 1034.71 263.536 1036.37 263.536C1037.62 263.536 1038.66 263.264 1039.49 262.72C1040.36 262.144 1041 261.408 1041.41 260.512H1047.65C1047.21 262.016 1046.45 263.392 1045.4 264.64C1044.37 265.856 1043.09 266.816 1041.56 267.52C1040.05 268.224 1038.34 268.576 1036.42 268.576ZM1036.47 248.608C1034.97 248.608 1033.64 249.04 1032.49 249.904C1031.33 250.736 1030.6 252.016 1030.28 253.744H1042.13C1042.04 252.176 1041.46 250.928 1040.41 250C1039.35 249.072 1038.04 248.608 1036.47 248.608ZM1049.65 268L1058.29 256.096L1049.65 244.192H1056.22L1062.27 252.64L1068.27 244.192H1074.89L1066.21 256.096L1074.89 268H1068.27L1062.27 259.552L1056.22 268H1049.65ZM1089.42 268C1086.92 268 1084.92 267.392 1083.42 266.176C1081.91 264.96 1081.16 262.8 1081.16 259.696V249.328H1077.08V244.192H1081.16L1081.88 237.808H1087.3V244.192H1093.74V249.328H1087.3V259.744C1087.3 260.896 1087.54 261.696 1088.02 262.144C1088.54 262.56 1089.4 262.768 1090.62 262.768H1093.59V268H1089.42ZM1098.48 256.672V251.536H1118.59V256.672H1098.48ZM231.264 340V306.4H244.752C248.24 306.4 250.896 307.216 252.72 308.848C254.576 310.448 255.504 312.512 255.504 315.04C255.504 317.152 254.928 318.848 253.776 320.128C252.656 321.376 251.28 322.224 249.648 322.672C251.568 323.056 253.152 324.016 254.4 325.552C255.648 327.056 256.272 328.816 256.272 330.832C256.272 333.488 255.312 335.68 253.392 337.408C251.472 339.136 248.752 340 245.232 340H231.264ZM237.408 320.512H243.84C245.568 320.512 246.896 320.112 247.824 319.312C248.752 318.512 249.216 317.376 249.216 315.904C249.216 314.496 248.752 313.392 247.824 312.592C246.928 311.76 245.568 311.344 243.744 311.344H237.408V320.512ZM237.408 335.008H244.272C246.096 335.008 247.504 334.592 248.496 333.76C249.52 332.896 250.032 331.696 250.032 330.16C250.032 328.592 249.504 327.36 248.448 326.464C247.392 325.568 245.968 325.12 244.176 325.12H237.408V335.008ZM269.609 340.576C267.561 340.576 265.881 340.256 264.569 339.616C263.257 338.944 262.281 338.064 261.641 336.976C261.001 335.888 260.681 334.688 260.681 333.376C260.681 331.168 261.545 329.376 263.273 328C265.001 326.624 267.593 325.936 271.049 325.936H277.097V325.36C277.097 323.728 276.633 322.528 275.705 321.76C274.777 320.992 273.625 320.608 272.249 320.608C271.001 320.608 269.913 320.912 268.985 321.52C268.057 322.096 267.481 322.96 267.257 324.112H261.257C261.417 322.384 261.993 320.88 262.985 319.6C264.009 318.32 265.321 317.344 266.921 316.672C268.521 315.968 270.313 315.616 272.297 315.616C275.689 315.616 278.361 316.464 280.313 318.16C282.265 319.856 283.241 322.256 283.241 325.36V340H278.009L277.433 336.16C276.729 337.44 275.737 338.496 274.457 339.328C273.209 340.16 271.593 340.576 269.609 340.576ZM271.001 335.776C272.761 335.776 274.121 335.2 275.081 334.048C276.073 332.896 276.697 331.472 276.953 329.776H271.721C270.089 329.776 268.921 330.08 268.217 330.688C267.513 331.264 267.161 331.984 267.161 332.848C267.161 333.776 267.513 334.496 268.217 335.008C268.921 335.52 269.849 335.776 271.001 335.776ZM298.944 340.576C296.832 340.576 294.976 340.24 293.376 339.568C291.776 338.864 290.496 337.904 289.536 336.688C288.576 335.472 288 334.064 287.808 332.464H294C294.192 333.392 294.704 334.192 295.536 334.864C296.4 335.504 297.504 335.824 298.848 335.824C300.192 335.824 301.168 335.552 301.776 335.008C302.416 334.464 302.736 333.84 302.736 333.136C302.736 332.112 302.288 331.424 301.392 331.072C300.496 330.688 299.248 330.32 297.648 329.968C296.624 329.744 295.584 329.472 294.528 329.152C293.472 328.832 292.496 328.432 291.6 327.952C290.736 327.44 290.032 326.8 289.488 326.032C288.944 325.232 288.672 324.256 288.672 323.104C288.672 320.992 289.504 319.216 291.168 317.776C292.864 316.336 295.232 315.616 298.272 315.616C301.088 315.616 303.328 316.272 304.992 317.584C306.688 318.896 307.696 320.704 308.016 323.008H302.208C301.856 321.248 300.528 320.368 298.224 320.368C297.072 320.368 296.176 320.592 295.536 321.04C294.928 321.488 294.624 322.048 294.624 322.72C294.624 323.424 295.088 323.984 296.016 324.4C296.944 324.816 298.176 325.2 299.712 325.552C301.376 325.936 302.896 326.368 304.272 326.848C305.68 327.296 306.8 327.984 307.632 328.912C308.464 329.808 308.88 331.104 308.88 332.8C308.912 334.272 308.528 335.6 307.728 336.784C306.928 337.968 305.776 338.896 304.272 339.568C302.768 340.24 300.992 340.576 298.944 340.576ZM325.891 340.576C323.491 340.576 321.363 340.064 319.507 339.04C317.651 338.016 316.195 336.576 315.139 334.72C314.083 332.864 313.555 330.72 313.555 328.288C313.555 325.824 314.067 323.632 315.091 321.712C316.147 319.792 317.587 318.304 319.411 317.248C321.267 316.16 323.443 315.616 325.939 315.616C328.275 315.616 330.339 316.128 332.131 317.152C333.923 318.176 335.315 319.584 336.307 321.376C337.331 323.136 337.843 325.104 337.843 327.28C337.843 327.632 337.827 328 337.795 328.384C337.795 328.768 337.779 329.168 337.747 329.584H319.651C319.779 331.44 320.419 332.896 321.571 333.952C322.755 335.008 324.179 335.536 325.843 335.536C327.091 335.536 328.131 335.264 328.963 334.72C329.827 334.144 330.467 333.408 330.883 332.512H337.123C336.675 334.016 335.923 335.392 334.867 336.64C333.843 337.856 332.563 338.816 331.027 339.52C329.523 340.224 327.811 340.576 325.891 340.576ZM325.939 320.608C324.435 320.608 323.107 321.04 321.955 321.904C320.803 322.736 320.067 324.016 319.747 325.744H331.603C331.507 324.176 330.931 322.928 329.875 322C328.819 321.072 327.507 320.608 325.939 320.608ZM353.955 340.576C351.715 340.576 349.715 340.032 347.955 338.944C346.195 337.856 344.803 336.368 343.779 334.48C342.755 332.592 342.243 330.448 342.243 328.048C342.243 325.648 342.755 323.52 343.779 321.664C344.803 319.776 346.195 318.304 347.955 317.248C349.715 316.16 351.715 315.616 353.955 315.616C355.747 315.616 357.315 315.952 358.659 316.624C360.003 317.296 361.091 318.24 361.923 319.456V305.44H368.067V340H362.595L361.923 336.592C361.155 337.648 360.131 338.576 358.851 339.376C357.603 340.176 355.971 340.576 353.955 340.576ZM355.251 335.2C357.235 335.2 358.851 334.544 360.099 333.232C361.379 331.888 362.019 330.176 362.019 328.096C362.019 326.016 361.379 324.32 360.099 323.008C358.851 321.664 357.235 320.992 355.251 320.992C353.299 320.992 351.683 321.648 350.403 322.96C349.123 324.272 348.483 325.968 348.483 328.048C348.483 330.128 349.123 331.84 350.403 333.184C351.683 334.528 353.299 335.2 355.251 335.2ZM401.121 340.576C397.729 340.576 394.817 339.856 392.385 338.416C389.953 336.944 388.081 334.912 386.769 332.32C385.457 329.696 384.801 326.672 384.801 323.248C384.801 319.824 385.457 316.8 386.769 314.176C388.081 311.552 389.953 309.504 392.385 308.032C394.817 306.56 397.729 305.824 401.121 305.824C405.153 305.824 408.449 306.832 411.009 308.848C413.601 310.832 415.217 313.632 415.857 317.248H409.089C408.673 315.424 407.777 314 406.401 312.976C405.057 311.92 403.265 311.392 401.025 311.392C397.921 311.392 395.489 312.448 393.729 314.56C391.969 316.672 391.089 319.568 391.089 323.248C391.089 326.928 391.969 329.824 393.729 331.936C395.489 334.016 397.921 335.056 401.025 335.056C403.265 335.056 405.057 334.576 406.401 333.616C407.777 332.624 408.673 331.264 409.089 329.536H415.857C415.217 332.992 413.601 335.696 411.009 337.648C408.449 339.6 405.153 340.576 401.121 340.576ZM432.575 340.576C430.271 340.576 428.191 340.048 426.335 338.992C424.511 337.936 423.055 336.48 421.967 334.624C420.911 332.736 420.383 330.56 420.383 328.096C420.383 325.632 420.927 323.472 422.015 321.616C423.103 319.728 424.559 318.256 426.383 317.2C428.239 316.144 430.319 315.616 432.623 315.616C434.895 315.616 436.943 316.144 438.767 317.2C440.623 318.256 442.079 319.728 443.135 321.616C444.223 323.472 444.767 325.632 444.767 328.096C444.767 330.56 444.223 332.736 443.135 334.624C442.079 336.48 440.623 337.936 438.767 338.992C436.911 340.048 434.847 340.576 432.575 340.576ZM432.575 335.248C434.175 335.248 435.567 334.656 436.751 333.472C437.935 332.256 438.527 330.464 438.527 328.096C438.527 325.728 437.935 323.952 436.751 322.768C435.567 321.552 434.191 320.944 432.623 320.944C430.991 320.944 429.583 321.552 428.399 322.768C427.247 323.952 426.671 325.728 426.671 328.096C426.671 330.464 427.247 332.256 428.399 333.472C429.583 334.656 430.975 335.248 432.575 335.248ZM450.261 340V316.192H455.685L456.165 320.224C456.901 318.816 457.957 317.696 459.333 316.864C460.741 316.032 462.389 315.616 464.277 315.616C467.221 315.616 469.509 316.544 471.141 318.4C472.773 320.256 473.589 322.976 473.589 326.56V340H467.445V327.136C467.445 325.088 467.029 323.52 466.197 322.432C465.365 321.344 464.069 320.8 462.309 320.8C460.581 320.8 459.157 321.408 458.037 322.624C456.949 323.84 456.405 325.536 456.405 327.712V340H450.261ZM490.072 340C487.576 340 485.576 339.392 484.072 338.176C482.568 336.96 481.816 334.8 481.816 331.696V321.328H477.736V316.192H481.816L482.536 309.808H487.96V316.192H494.392V321.328H487.96V331.744C487.96 332.896 488.2 333.696 488.68 334.144C489.192 334.56 490.056 334.768 491.272 334.768H494.248V340H490.072ZM510.626 340.576C508.226 340.576 506.098 340.064 504.242 339.04C502.386 338.016 500.93 336.576 499.874 334.72C498.818 332.864 498.29 330.72 498.29 328.288C498.29 325.824 498.802 323.632 499.826 321.712C500.882 319.792 502.322 318.304 504.146 317.248C506.002 316.16 508.178 315.616 510.674 315.616C513.01 315.616 515.074 316.128 516.866 317.152C518.658 318.176 520.05 319.584 521.042 321.376C522.066 323.136 522.578 325.104 522.578 327.28C522.578 327.632 522.562 328 522.53 328.384C522.53 328.768 522.514 329.168 522.482 329.584H504.386C504.514 331.44 505.154 332.896 506.306 333.952C507.49 335.008 508.914 335.536 510.578 335.536C511.826 335.536 512.866 335.264 513.698 334.72C514.562 334.144 515.202 333.408 515.618 332.512H521.858C521.41 334.016 520.658 335.392 519.602 336.64C518.578 337.856 517.298 338.816 515.762 339.52C514.258 340.224 512.546 340.576 510.626 340.576ZM510.674 320.608C509.17 320.608 507.842 321.04 506.69 321.904C505.538 322.736 504.802 324.016 504.482 325.744H516.338C516.242 324.176 515.666 322.928 514.61 322C513.554 321.072 512.242 320.608 510.674 320.608ZM527.745 340V316.192H533.169L533.649 320.224C534.385 318.816 535.441 317.696 536.817 316.864C538.225 316.032 539.873 315.616 541.761 315.616C544.705 315.616 546.993 316.544 548.625 318.4C550.257 320.256 551.073 322.976 551.073 326.56V340H544.929V327.136C544.929 325.088 544.513 323.52 543.681 322.432C542.849 321.344 541.553 320.8 539.793 320.8C538.065 320.8 536.641 321.408 535.521 322.624C534.433 323.84 533.889 325.536 533.889 327.712V340H527.745ZM567.556 340C565.06 340 563.06 339.392 561.556 338.176C560.052 336.96 559.3 334.8 559.3 331.696V321.328H555.22V316.192H559.3L560.02 309.808H565.444V316.192H571.876V321.328H565.444V331.744C565.444 332.896 565.684 333.696 566.164 334.144C566.676 334.56 567.54 334.768 568.756 334.768H571.732V340H567.556Z" fill="white"/>
    <path d="M235.992 410.288C234.792 410.288 233.704 410.056 232.728 409.592C231.768 409.112 231 408.384 230.424 407.408C229.864 406.432 229.584 405.192 229.584 403.688V393.2H232.128V403.712C232.128 405.184 232.48 406.264 233.184 406.952C233.888 407.64 234.84 407.984 236.04 407.984C237.224 407.984 238.168 407.64 238.872 406.952C239.576 406.264 239.928 405.184 239.928 403.712V393.2H242.472V403.688C242.472 405.192 242.176 406.432 241.584 407.408C241.008 408.384 240.224 409.112 239.232 409.592C238.256 410.056 237.176 410.288 235.992 410.288ZM245.639 410V398.096H247.895L248.087 400.184C248.455 399.448 248.991 398.872 249.695 398.456C250.415 398.024 251.239 397.808 252.167 397.808C253.607 397.808 254.735 398.256 255.551 399.152C256.383 400.048 256.799 401.384 256.799 403.16V410H254.279V403.424C254.279 401.12 253.335 399.968 251.447 399.968C250.503 399.968 249.719 400.304 249.095 400.976C248.487 401.648 248.183 402.608 248.183 403.856V410H245.639ZM259.796 410V392.72H262.34V410H259.796ZM271.129 410.288C269.961 410.288 268.921 410.032 268.009 409.52C267.113 408.992 266.409 408.264 265.897 407.336C265.385 406.408 265.129 405.328 265.129 404.096C265.129 402.848 265.377 401.752 265.873 400.808C266.385 399.864 267.089 399.128 267.985 398.6C268.897 398.072 269.953 397.808 271.153 397.808C272.321 397.808 273.337 398.072 274.201 398.6C275.065 399.112 275.737 399.8 276.217 400.664C276.697 401.528 276.937 402.48 276.937 403.52C276.937 403.68 276.929 403.856 276.913 404.048C276.913 404.224 276.905 404.424 276.889 404.648H267.625C267.705 405.8 268.081 406.68 268.753 407.288C269.441 407.88 270.233 408.176 271.129 408.176C271.849 408.176 272.449 408.016 272.929 407.696C273.425 407.36 273.793 406.912 274.033 406.352H276.577C276.257 407.472 275.617 408.408 274.657 409.16C273.713 409.912 272.537 410.288 271.129 410.288ZM271.129 399.896C270.281 399.896 269.529 400.152 268.873 400.664C268.217 401.16 267.817 401.912 267.673 402.92H274.393C274.345 401.992 274.017 401.256 273.409 400.712C272.801 400.168 272.041 399.896 271.129 399.896ZM283.609 410.288C282.601 410.288 281.769 410.12 281.113 409.784C280.457 409.448 279.969 409.008 279.649 408.464C279.329 407.904 279.169 407.296 279.169 406.64C279.169 405.488 279.617 404.576 280.513 403.904C281.409 403.232 282.689 402.896 284.353 402.896H287.473V402.68C287.473 401.752 287.217 401.056 286.705 400.592C286.209 400.128 285.561 399.896 284.761 399.896C284.057 399.896 283.441 400.072 282.913 400.424C282.401 400.76 282.089 401.264 281.977 401.936H279.433C279.513 401.072 279.801 400.336 280.297 399.728C280.809 399.104 281.449 398.632 282.217 398.312C283.001 397.976 283.857 397.808 284.785 397.808C286.449 397.808 287.737 398.248 288.649 399.128C289.561 399.992 290.017 401.176 290.017 402.68V410H287.809L287.593 407.96C287.257 408.616 286.769 409.168 286.129 409.616C285.489 410.064 284.649 410.288 283.609 410.288ZM284.113 408.224C284.801 408.224 285.377 408.064 285.841 407.744C286.321 407.408 286.689 406.968 286.945 406.424C287.217 405.88 287.385 405.28 287.449 404.624H284.617C283.609 404.624 282.889 404.8 282.457 405.152C282.041 405.504 281.833 405.944 281.833 406.472C281.833 407.016 282.033 407.448 282.433 407.768C282.849 408.072 283.409 408.224 284.113 408.224ZM297.735 410.288C296.231 410.288 294.991 409.92 294.015 409.184C293.039 408.448 292.479 407.472 292.335 406.256H294.903C295.031 406.8 295.335 407.272 295.815 407.672C296.295 408.056 296.927 408.248 297.711 408.248C298.479 408.248 299.039 408.088 299.391 407.768C299.743 407.448 299.919 407.08 299.919 406.664C299.919 406.056 299.671 405.648 299.175 405.44C298.695 405.216 298.023 405.016 297.159 404.84C296.487 404.696 295.815 404.504 295.143 404.264C294.487 404.024 293.935 403.688 293.487 403.256C293.055 402.808 292.839 402.208 292.839 401.456C292.839 400.416 293.239 399.552 294.039 398.864C294.839 398.16 295.959 397.808 297.399 397.808C298.727 397.808 299.799 398.128 300.615 398.768C301.447 399.408 301.935 400.312 302.079 401.48H299.631C299.551 400.968 299.311 400.568 298.911 400.28C298.527 399.992 298.007 399.848 297.351 399.848C296.711 399.848 296.215 399.984 295.863 400.256C295.511 400.512 295.335 400.848 295.335 401.264C295.335 401.68 295.575 402.008 296.055 402.248C296.551 402.488 297.199 402.704 297.999 402.896C298.799 403.072 299.535 403.28 300.207 403.52C300.895 403.744 301.447 404.08 301.863 404.528C302.279 404.976 302.487 405.632 302.487 406.496C302.503 407.584 302.079 408.488 301.215 409.208C300.367 409.928 299.207 410.288 297.735 410.288ZM305.264 410V392.72H307.808V400.016C308.208 399.328 308.76 398.792 309.464 398.408C310.184 398.008 310.976 397.808 311.84 397.808C313.264 397.808 314.384 398.256 315.2 399.152C316.016 400.048 316.424 401.384 316.424 403.16V410H313.904V403.424C313.904 401.12 312.984 399.968 311.144 399.968C310.184 399.968 309.384 400.304 308.744 400.976C308.12 401.648 307.808 402.608 307.808 403.856V410H305.264ZM330.459 410C329.291 410 328.363 409.72 327.675 409.16C326.987 408.584 326.643 407.568 326.643 406.112V400.232H324.603V398.096H326.643L326.955 395.072H329.187V398.096H332.547V400.232H329.187V406.112C329.187 406.768 329.323 407.224 329.595 407.48C329.883 407.72 330.371 407.84 331.059 407.84H332.427V410H330.459ZM335.171 410V392.72H337.715V400.016C338.115 399.328 338.667 398.792 339.371 398.408C340.091 398.008 340.883 397.808 341.747 397.808C343.171 397.808 344.291 398.256 345.107 399.152C345.923 400.048 346.331 401.384 346.331 403.16V410H343.811V403.424C343.811 401.12 342.891 399.968 341.051 399.968C340.091 399.968 339.291 400.304 338.651 400.976C338.027 401.648 337.715 402.608 337.715 403.856V410H335.171ZM354.895 410.288C353.727 410.288 352.687 410.032 351.775 409.52C350.879 408.992 350.175 408.264 349.663 407.336C349.151 406.408 348.895 405.328 348.895 404.096C348.895 402.848 349.143 401.752 349.639 400.808C350.151 399.864 350.855 399.128 351.751 398.6C352.663 398.072 353.719 397.808 354.919 397.808C356.087 397.808 357.103 398.072 357.967 398.6C358.831 399.112 359.503 399.8 359.983 400.664C360.463 401.528 360.703 402.48 360.703 403.52C360.703 403.68 360.695 403.856 360.679 404.048C360.679 404.224 360.671 404.424 360.655 404.648H351.391C351.471 405.8 351.847 406.68 352.519 407.288C353.207 407.88 353.999 408.176 354.895 408.176C355.615 408.176 356.215 408.016 356.695 407.696C357.191 407.36 357.559 406.912 357.799 406.352H360.343C360.023 407.472 359.383 408.408 358.423 409.16C357.479 409.912 356.303 410.288 354.895 410.288ZM354.895 399.896C354.047 399.896 353.295 400.152 352.639 400.664C351.983 401.16 351.583 401.912 351.439 402.92H358.159C358.111 401.992 357.783 401.256 357.175 400.712C356.567 400.168 355.807 399.896 354.895 399.896ZM369.485 410V393.2H375.365C376.677 393.2 377.765 393.424 378.629 393.872C379.493 394.304 380.133 394.904 380.549 395.672C380.981 396.424 381.197 397.28 381.197 398.24C381.197 399.152 380.989 399.992 380.573 400.76C380.173 401.512 379.541 402.112 378.677 402.56C377.813 403.008 376.709 403.232 375.365 403.232H372.029V410H369.485ZM372.029 401.144H375.245C376.445 401.144 377.301 400.888 377.813 400.376C378.341 399.848 378.605 399.136 378.605 398.24C378.605 397.312 378.341 396.592 377.813 396.08C377.301 395.552 376.445 395.288 375.245 395.288H372.029V401.144ZM388.528 410.288C387.392 410.288 386.368 410.032 385.456 409.52C384.56 408.992 383.848 408.264 383.32 407.336C382.792 406.392 382.528 405.296 382.528 404.048C382.528 402.8 382.792 401.712 383.32 400.784C383.864 399.84 384.592 399.112 385.504 398.6C386.416 398.072 387.432 397.808 388.552 397.808C389.688 397.808 390.704 398.072 391.6 398.6C392.512 399.112 393.232 399.84 393.76 400.784C394.304 401.712 394.576 402.8 394.576 404.048C394.576 405.296 394.304 406.392 393.76 407.336C393.232 408.264 392.512 408.992 391.6 409.52C390.688 410.032 389.664 410.288 388.528 410.288ZM388.528 408.104C389.136 408.104 389.696 407.952 390.208 407.648C390.736 407.344 391.16 406.896 391.48 406.304C391.8 405.696 391.96 404.944 391.96 404.048C391.96 403.152 391.8 402.408 391.48 401.816C391.176 401.208 390.76 400.752 390.232 400.448C389.72 400.144 389.16 399.992 388.552 399.992C387.944 399.992 387.376 400.144 386.848 400.448C386.336 400.752 385.92 401.208 385.6 401.816C385.28 402.408 385.12 403.152 385.12 404.048C385.12 404.944 385.28 405.696 385.6 406.304C385.92 406.896 386.336 407.344 386.848 407.648C387.36 407.952 387.92 408.104 388.528 408.104ZM399.257 410L395.753 398.096H398.297L400.601 407.072L403.193 398.096H406.025L408.617 407.072L410.921 398.096H413.465L409.961 410H407.345L404.609 400.64L401.873 410H399.257ZM420.684 410.288C419.516 410.288 418.476 410.032 417.564 409.52C416.668 408.992 415.964 408.264 415.452 407.336C414.94 406.408 414.684 405.328 414.684 404.096C414.684 402.848 414.932 401.752 415.428 400.808C415.94 399.864 416.644 399.128 417.54 398.6C418.452 398.072 419.508 397.808 420.708 397.808C421.876 397.808 422.892 398.072 423.756 398.6C424.62 399.112 425.292 399.8 425.772 400.664C426.252 401.528 426.492 402.48 426.492 403.52C426.492 403.68 426.484 403.856 426.468 404.048C426.468 404.224 426.46 404.424 426.444 404.648H417.18C417.26 405.8 417.636 406.68 418.308 407.288C418.996 407.88 419.788 408.176 420.684 408.176C421.404 408.176 422.004 408.016 422.484 407.696C422.98 407.36 423.348 406.912 423.588 406.352H426.132C425.812 407.472 425.172 408.408 424.212 409.16C423.268 409.912 422.092 410.288 420.684 410.288ZM420.684 399.896C419.836 399.896 419.084 400.152 418.428 400.664C417.772 401.16 417.372 401.912 417.228 402.92H423.948C423.9 401.992 423.572 401.256 422.964 400.712C422.356 400.168 421.596 399.896 420.684 399.896ZM429.131 410V398.096H431.411L431.627 400.352C432.043 399.568 432.619 398.952 433.355 398.504C434.107 398.04 435.011 397.808 436.067 397.808V400.472H435.371C434.667 400.472 434.035 400.592 433.475 400.832C432.931 401.056 432.491 401.448 432.155 402.008C431.835 402.552 431.675 403.312 431.675 404.288V410H429.131ZM449.864 410.288C448.728 410.288 447.704 410.032 446.792 409.52C445.896 408.992 445.184 408.264 444.656 407.336C444.128 406.392 443.864 405.296 443.864 404.048C443.864 402.8 444.128 401.712 444.656 400.784C445.2 399.84 445.928 399.112 446.84 398.6C447.752 398.072 448.768 397.808 449.888 397.808C451.024 397.808 452.04 398.072 452.936 398.6C453.848 399.112 454.568 399.84 455.096 400.784C455.64 401.712 455.911 402.8 455.911 404.048C455.911 405.296 455.64 406.392 455.096 407.336C454.568 408.264 453.848 408.992 452.936 409.52C452.024 410.032 451 410.288 449.864 410.288ZM449.864 408.104C450.472 408.104 451.032 407.952 451.544 407.648C452.072 407.344 452.496 406.896 452.816 406.304C453.136 405.696 453.296 404.944 453.296 404.048C453.296 403.152 453.136 402.408 452.816 401.816C452.512 401.208 452.096 400.752 451.568 400.448C451.056 400.144 450.496 399.992 449.888 399.992C449.28 399.992 448.712 400.144 448.184 400.448C447.672 400.752 447.256 401.208 446.936 401.816C446.616 402.408 446.456 403.152 446.456 404.048C446.456 404.944 446.616 405.696 446.936 406.304C447.256 406.896 447.672 407.344 448.184 407.648C448.696 407.952 449.256 408.104 449.864 408.104ZM459.263 410V400.232H457.559V398.096H459.263V396.368C459.263 395.072 459.583 394.144 460.223 393.584C460.879 393.008 461.799 392.72 462.983 392.72H464.231V394.88H463.367C462.807 394.88 462.407 395 462.167 395.24C461.927 395.464 461.807 395.848 461.807 396.392V398.096H464.543V400.232H461.807V410H459.263ZM476.534 410.024L471.998 393.2H474.734L478.07 407.12L481.91 393.2H484.718L488.438 407.12L491.774 393.2H494.51L489.902 410H486.926L483.254 396.824L479.462 410L476.534 410.024ZM501.074 410.288C499.938 410.288 498.914 410.032 498.002 409.52C497.106 408.992 496.394 408.264 495.866 407.336C495.338 406.392 495.074 405.296 495.074 404.048C495.074 402.8 495.338 401.712 495.866 400.784C496.41 399.84 497.138 399.112 498.05 398.6C498.962 398.072 499.978 397.808 501.098 397.808C502.234 397.808 503.25 398.072 504.146 398.6C505.058 399.112 505.778 399.84 506.306 400.784C506.85 401.712 507.122 402.8 507.122 404.048C507.122 405.296 506.85 406.392 506.306 407.336C505.778 408.264 505.058 408.992 504.146 409.52C503.234 410.032 502.21 410.288 501.074 410.288ZM501.074 408.104C501.682 408.104 502.242 407.952 502.754 407.648C503.282 407.344 503.706 406.896 504.026 406.304C504.346 405.696 504.506 404.944 504.506 404.048C504.506 403.152 504.346 402.408 504.026 401.816C503.722 401.208 503.306 400.752 502.778 400.448C502.266 400.144 501.706 399.992 501.098 399.992C500.49 399.992 499.922 400.144 499.394 400.448C498.882 400.752 498.466 401.208 498.146 401.816C497.826 402.408 497.666 403.152 497.666 404.048C497.666 404.944 497.826 405.696 498.146 406.304C498.466 406.896 498.882 407.344 499.394 407.648C499.906 407.952 500.466 408.104 501.074 408.104ZM509.874 410V398.096H512.154L512.37 400.352C512.786 399.568 513.362 398.952 514.098 398.504C514.85 398.04 515.754 397.808 516.81 397.808V400.472H516.114C515.41 400.472 514.778 400.592 514.218 400.832C513.674 401.056 513.234 401.448 512.898 402.008C512.578 402.552 512.418 403.312 512.418 404.288V410H509.874ZM524.087 410.288C522.935 410.288 521.919 410.016 521.039 409.472C520.159 408.928 519.471 408.184 518.975 407.24C518.479 406.296 518.231 405.224 518.231 404.024C518.231 402.824 518.479 401.76 518.975 400.832C519.471 399.888 520.159 399.152 521.039 398.624C521.935 398.08 522.959 397.808 524.111 397.808C525.055 397.808 525.879 397.992 526.583 398.36C527.303 398.728 527.863 399.248 528.263 399.92V392.72H530.807V410H528.527L528.263 408.152C527.879 408.712 527.351 409.208 526.679 409.64C526.007 410.072 525.143 410.288 524.087 410.288ZM524.543 408.08C525.631 408.08 526.519 407.704 527.207 406.952C527.911 406.2 528.263 405.232 528.263 404.048C528.263 402.848 527.911 401.88 527.207 401.144C526.519 400.392 525.631 400.016 524.543 400.016C523.455 400.016 522.559 400.392 521.855 401.144C521.151 401.88 520.799 402.848 520.799 404.048C520.799 404.832 520.959 405.528 521.279 406.136C521.599 406.744 522.039 407.224 522.599 407.576C523.175 407.912 523.823 408.08 524.543 408.08ZM538.766 410.288C537.262 410.288 536.022 409.92 535.046 409.184C534.07 408.448 533.51 407.472 533.366 406.256H535.934C536.062 406.8 536.366 407.272 536.846 407.672C537.326 408.056 537.958 408.248 538.742 408.248C539.51 408.248 540.07 408.088 540.422 407.768C540.774 407.448 540.95 407.08 540.95 406.664C540.95 406.056 540.702 405.648 540.206 405.44C539.726 405.216 539.054 405.016 538.19 404.84C537.518 404.696 536.846 404.504 536.174 404.264C535.518 404.024 534.966 403.688 534.518 403.256C534.086 402.808 533.87 402.208 533.87 401.456C533.87 400.416 534.27 399.552 535.07 398.864C535.87 398.16 536.99 397.808 538.43 397.808C539.758 397.808 540.83 398.128 541.646 398.768C542.478 399.408 542.966 400.312 543.11 401.48H540.662C540.582 400.968 540.342 400.568 539.942 400.28C539.558 399.992 539.038 399.848 538.382 399.848C537.742 399.848 537.246 399.984 536.894 400.256C536.542 400.512 536.366 400.848 536.366 401.264C536.366 401.68 536.606 402.008 537.086 402.248C537.582 402.488 538.23 402.704 539.03 402.896C539.83 403.072 540.566 403.28 541.238 403.52C541.926 403.744 542.478 404.08 542.894 404.528C543.31 404.976 543.518 405.632 543.518 406.496C543.534 407.584 543.11 408.488 542.246 409.208C541.398 409.928 540.238 410.288 538.766 410.288ZM544.88 412.832L546.271 407.168H548.792L546.584 412.832H544.88ZM564.825 410.288C563.161 410.288 561.721 409.928 560.505 409.208C559.305 408.472 558.377 407.456 557.721 406.16C557.065 404.848 556.737 403.336 556.737 401.624C556.737 399.896 557.065 398.384 557.721 397.088C558.377 395.776 559.305 394.752 560.505 394.016C561.721 393.28 563.161 392.912 564.825 392.912C566.793 392.912 568.401 393.392 569.649 394.352C570.897 395.312 571.689 396.656 572.025 398.384H569.193C568.969 397.408 568.489 396.632 567.753 396.056C567.017 395.48 566.033 395.192 564.801 395.192C563.121 395.192 561.793 395.768 560.817 396.92C559.841 398.056 559.353 399.624 559.353 401.624C559.353 403.608 559.841 405.168 560.817 406.304C561.793 407.44 563.121 408.008 564.801 408.008C566.033 408.008 567.017 407.736 567.753 407.192C568.489 406.648 568.969 405.904 569.193 404.96H572.025C571.689 406.624 570.897 407.928 569.649 408.872C568.401 409.816 566.793 410.288 564.825 410.288ZM580.293 410.288C579.157 410.288 578.133 410.032 577.221 409.52C576.325 408.992 575.613 408.264 575.085 407.336C574.557 406.392 574.293 405.296 574.293 404.048C574.293 402.8 574.557 401.712 575.085 400.784C575.629 399.84 576.357 399.112 577.269 398.6C578.181 398.072 579.197 397.808 580.317 397.808C581.453 397.808 582.469 398.072 583.365 398.6C584.277 399.112 584.997 399.84 585.525 400.784C586.069 401.712 586.341 402.8 586.341 404.048C586.341 405.296 586.069 406.392 585.525 407.336C584.997 408.264 584.277 408.992 583.365 409.52C582.453 410.032 581.429 410.288 580.293 410.288ZM580.293 408.104C580.901 408.104 581.461 407.952 581.973 407.648C582.501 407.344 582.925 406.896 583.245 406.304C583.565 405.696 583.725 404.944 583.725 404.048C583.725 403.152 583.565 402.408 583.245 401.816C582.941 401.208 582.525 400.752 581.997 400.448C581.485 400.144 580.925 399.992 580.317 399.992C579.709 399.992 579.141 400.144 578.613 400.448C578.101 400.752 577.685 401.208 577.365 401.816C577.045 402.408 576.885 403.152 576.885 404.048C576.885 404.944 577.045 405.696 577.365 406.304C577.685 406.896 578.101 407.344 578.613 407.648C579.125 407.952 579.685 408.104 580.293 408.104ZM589.092 410V398.096H591.348L591.54 400.184C591.908 399.448 592.444 398.872 593.148 398.456C593.868 398.024 594.692 397.808 595.62 397.808C597.06 397.808 598.188 398.256 599.004 399.152C599.836 400.048 600.252 401.384 600.252 403.16V410H597.732V403.424C597.732 401.12 596.788 399.968 594.9 399.968C593.956 399.968 593.172 400.304 592.548 400.976C591.94 401.648 591.636 402.608 591.636 403.856V410H589.092ZM603.249 410V398.096H605.505L605.697 400.184C606.065 399.448 606.601 398.872 607.305 398.456C608.025 398.024 608.849 397.808 609.777 397.808C611.217 397.808 612.345 398.256 613.161 399.152C613.993 400.048 614.409 401.384 614.409 403.16V410H611.889V403.424C611.889 401.12 610.945 399.968 609.057 399.968C608.113 399.968 607.329 400.304 606.705 400.976C606.097 401.648 605.793 402.608 605.793 403.856V410H603.249ZM622.973 410.288C621.805 410.288 620.765 410.032 619.853 409.52C618.957 408.992 618.253 408.264 617.741 407.336C617.229 406.408 616.973 405.328 616.973 404.096C616.973 402.848 617.221 401.752 617.717 400.808C618.229 399.864 618.933 399.128 619.829 398.6C620.741 398.072 621.797 397.808 622.997 397.808C624.165 397.808 625.181 398.072 626.045 398.6C626.909 399.112 627.581 399.8 628.061 400.664C628.541 401.528 628.781 402.48 628.781 403.52C628.781 403.68 628.773 403.856 628.757 404.048C628.757 404.224 628.749 404.424 628.733 404.648H619.469C619.549 405.8 619.925 406.68 620.597 407.288C621.285 407.88 622.077 408.176 622.973 408.176C623.693 408.176 624.293 408.016 624.773 407.696C625.269 407.36 625.637 406.912 625.877 406.352H628.421C628.101 407.472 627.461 408.408 626.501 409.16C625.557 409.912 624.381 410.288 622.973 410.288ZM622.973 399.896C622.125 399.896 621.373 400.152 620.717 400.664C620.061 401.16 619.661 401.912 619.517 402.92H626.237C626.189 401.992 625.861 401.256 625.253 400.712C624.645 400.168 623.885 399.896 622.973 399.896ZM637.061 410.288C635.893 410.288 634.845 410.024 633.917 409.496C633.005 408.968 632.285 408.24 631.757 407.312C631.245 406.368 630.989 405.28 630.989 404.048C630.989 402.816 631.245 401.736 631.757 400.808C632.285 399.864 633.005 399.128 633.917 398.6C634.845 398.072 635.893 397.808 637.061 397.808C638.533 397.808 639.765 398.192 640.757 398.96C641.765 399.728 642.413 400.768 642.701 402.08H640.037C639.877 401.424 639.525 400.912 638.981 400.544C638.437 400.176 637.797 399.992 637.061 399.992C636.437 399.992 635.861 400.152 635.333 400.472C634.805 400.776 634.381 401.232 634.061 401.84C633.741 402.432 633.581 403.168 633.581 404.048C633.581 404.928 633.741 405.672 634.061 406.28C634.381 406.872 634.805 407.328 635.333 407.648C635.861 407.968 636.437 408.128 637.061 408.128C637.797 408.128 638.437 407.944 638.981 407.576C639.525 407.208 639.877 406.688 640.037 406.016H642.701C642.429 407.296 641.789 408.328 640.781 409.112C639.773 409.896 638.533 410.288 637.061 410.288ZM650.217 410C649.049 410 648.121 409.72 647.433 409.16C646.745 408.584 646.401 407.568 646.401 406.112V400.232H644.361V398.096H646.401L646.713 395.072H648.945V398.096H652.305V400.232H648.945V406.112C648.945 406.768 649.081 407.224 649.353 407.48C649.641 407.72 650.129 407.84 650.817 407.84H652.185V410H650.217ZM663.351 410L659.847 398.096H662.391L664.695 407.072L667.287 398.096H670.119L672.711 407.072L675.015 398.096H677.559L674.055 410H671.439L668.703 400.64L665.967 410H663.351ZM681.095 395.84C680.615 395.84 680.215 395.696 679.895 395.408C679.591 395.104 679.439 394.728 679.439 394.28C679.439 393.832 679.591 393.464 679.895 393.176C680.215 392.872 680.615 392.72 681.095 392.72C681.575 392.72 681.967 392.872 682.271 393.176C682.591 393.464 682.751 393.832 682.751 394.28C682.751 394.728 682.591 395.104 682.271 395.408C681.967 395.696 681.575 395.84 681.095 395.84ZM679.823 410V398.096H682.367V410H679.823ZM690.717 410C689.549 410 688.621 409.72 687.933 409.16C687.245 408.584 686.901 407.568 686.901 406.112V400.232H684.861V398.096H686.901L687.213 395.072H689.445V398.096H692.805V400.232H689.445V406.112C689.445 406.768 689.581 407.224 689.853 407.48C690.141 407.72 690.629 407.84 691.317 407.84H692.685V410H690.717ZM695.428 410V392.72H697.972V400.016C698.372 399.328 698.924 398.792 699.628 398.408C700.348 398.008 701.14 397.808 702.004 397.808C703.428 397.808 704.548 398.256 705.364 399.152C706.18 400.048 706.588 401.384 706.588 403.16V410H704.068V403.424C704.068 401.12 703.148 399.968 701.308 399.968C700.348 399.968 699.548 400.304 698.908 400.976C698.284 401.648 697.972 402.608 697.972 403.856V410H695.428ZM715.727 410V393.2H718.271V407.984H725.903V410H715.727ZM729.986 395.84C729.506 395.84 729.106 395.696 728.786 395.408C728.482 395.104 728.33 394.728 728.33 394.28C728.33 393.832 728.482 393.464 728.786 393.176C729.106 392.872 729.506 392.72 729.986 392.72C730.466 392.72 730.858 392.872 731.162 393.176C731.482 393.464 731.642 393.832 731.642 394.28C731.642 394.728 731.482 395.104 731.162 395.408C730.858 395.696 730.466 395.84 729.986 395.84ZM728.714 410V398.096H731.258V410H728.714ZM734.616 410V392.72H737.16V403.016L741.72 398.096H744.768L739.704 403.496L745.512 410H742.296L737.16 403.904V410H734.616ZM752.137 410.288C750.969 410.288 749.929 410.032 749.017 409.52C748.121 408.992 747.417 408.264 746.905 407.336C746.393 406.408 746.137 405.328 746.137 404.096C746.137 402.848 746.385 401.752 746.881 400.808C747.393 399.864 748.097 399.128 748.993 398.6C749.905 398.072 750.961 397.808 752.161 397.808C753.329 397.808 754.345 398.072 755.209 398.6C756.073 399.112 756.745 399.8 757.225 400.664C757.705 401.528 757.945 402.48 757.945 403.52C757.945 403.68 757.937 403.856 757.921 404.048C757.921 404.224 757.913 404.424 757.897 404.648H748.633C748.713 405.8 749.089 406.68 749.761 407.288C750.449 407.88 751.241 408.176 752.137 408.176C752.857 408.176 753.457 408.016 753.937 407.696C754.433 407.36 754.801 406.912 755.041 406.352H757.585C757.265 407.472 756.625 408.408 755.665 409.16C754.721 409.912 753.545 410.288 752.137 410.288ZM752.137 399.896C751.289 399.896 750.537 400.152 749.881 400.664C749.225 401.16 748.825 401.912 748.681 402.92H755.401C755.353 401.992 755.025 401.256 754.417 400.712C753.809 400.168 753.049 399.896 752.137 399.896ZM760.345 404.096V401.96H770.113V404.096H760.345ZM773.053 410V398.096H775.309L775.525 399.776C775.909 399.168 776.413 398.688 777.037 398.336C777.677 397.984 778.413 397.808 779.245 397.808C781.133 397.808 782.445 398.552 783.181 400.04C783.613 399.352 784.189 398.808 784.909 398.408C785.645 398.008 786.437 397.808 787.285 397.808C788.773 397.808 789.941 398.256 790.789 399.152C791.637 400.048 792.061 401.384 792.061 403.16V410H789.517V403.424C789.517 401.12 788.637 399.968 786.877 399.968C785.981 399.968 785.245 400.304 784.669 400.976C784.109 401.648 783.829 402.608 783.829 403.856V410H781.285V403.424C781.285 401.12 780.397 399.968 778.621 399.968C777.741 399.968 777.013 400.304 776.437 400.976C775.877 401.648 775.597 402.608 775.597 403.856V410H773.053ZM796.478 395.84C795.998 395.84 795.598 395.696 795.278 395.408C794.974 395.104 794.822 394.728 794.822 394.28C794.822 393.832 794.974 393.464 795.278 393.176C795.598 392.872 795.998 392.72 796.478 392.72C796.958 392.72 797.35 392.872 797.654 393.176C797.974 393.464 798.134 393.832 798.134 394.28C798.134 394.728 797.974 395.104 797.654 395.408C797.35 395.696 796.958 395.84 796.478 395.84ZM795.206 410V398.096H797.75V410H795.206ZM801.108 410V398.096H803.364L803.556 400.184C803.924 399.448 804.46 398.872 805.164 398.456C805.884 398.024 806.708 397.808 807.636 397.808C809.076 397.808 810.204 398.256 811.02 399.152C811.852 400.048 812.268 401.384 812.268 403.16V410H809.748V403.424C809.748 401.12 808.804 399.968 806.916 399.968C805.972 399.968 805.188 400.304 804.564 400.976C803.956 401.648 803.652 402.608 803.652 403.856V410H801.108ZM820.688 410.288C819.536 410.288 818.52 410.016 817.64 409.472C816.76 408.928 816.072 408.184 815.576 407.24C815.08 406.296 814.832 405.224 814.832 404.024C814.832 402.824 815.08 401.76 815.576 400.832C816.072 399.888 816.76 399.152 817.64 398.624C818.536 398.08 819.56 397.808 820.712 397.808C821.656 397.808 822.48 397.992 823.184 398.36C823.904 398.728 824.464 399.248 824.864 399.92V392.72H827.408V410H825.128L824.864 408.152C824.48 408.712 823.952 409.208 823.28 409.64C822.608 410.072 821.744 410.288 820.688 410.288ZM821.144 408.08C822.232 408.08 823.12 407.704 823.808 406.952C824.512 406.2 824.864 405.232 824.864 404.048C824.864 402.848 824.512 401.88 823.808 401.144C823.12 400.392 822.232 400.016 821.144 400.016C820.056 400.016 819.16 400.392 818.456 401.144C817.752 401.88 817.4 402.848 817.4 404.048C817.4 404.832 817.56 405.528 817.88 406.136C818.2 406.744 818.64 407.224 819.2 407.576C819.776 407.912 820.424 408.08 821.144 408.08ZM836.184 410.288C835.016 410.288 833.976 410.032 833.064 409.52C832.168 408.992 831.464 408.264 830.952 407.336C830.44 406.408 830.184 405.328 830.184 404.096C830.184 402.848 830.432 401.752 830.928 400.808C831.44 399.864 832.144 399.128 833.04 398.6C833.952 398.072 835.008 397.808 836.208 397.808C837.376 397.808 838.392 398.072 839.256 398.6C840.12 399.112 840.792 399.8 841.272 400.664C841.752 401.528 841.992 402.48 841.992 403.52C841.992 403.68 841.984 403.856 841.968 404.048C841.968 404.224 841.96 404.424 841.944 404.648H832.68C832.76 405.8 833.136 406.68 833.808 407.288C834.496 407.88 835.288 408.176 836.184 408.176C836.904 408.176 837.504 408.016 837.984 407.696C838.48 407.36 838.848 406.912 839.088 406.352H841.632C841.312 407.472 840.672 408.408 839.712 409.16C838.768 409.912 837.592 410.288 836.184 410.288ZM836.184 399.896C835.336 399.896 834.584 400.152 833.928 400.664C833.272 401.16 832.872 401.912 832.728 402.92H839.448C839.4 401.992 839.072 401.256 838.464 400.712C837.856 400.168 837.096 399.896 836.184 399.896ZM850.055 410.288C848.903 410.288 847.887 410.016 847.007 409.472C846.127 408.928 845.439 408.184 844.943 407.24C844.447 406.296 844.199 405.224 844.199 404.024C844.199 402.824 844.447 401.76 844.943 400.832C845.439 399.888 846.127 399.152 847.007 398.624C847.903 398.08 848.927 397.808 850.079 397.808C851.023 397.808 851.847 397.992 852.551 398.36C853.271 398.728 853.831 399.248 854.231 399.92V392.72H856.775V410H854.495L854.231 408.152C853.847 408.712 853.319 409.208 852.647 409.64C851.975 410.072 851.111 410.288 850.055 410.288ZM850.511 408.08C851.599 408.08 852.487 407.704 853.175 406.952C853.879 406.2 854.231 405.232 854.231 404.048C854.231 402.848 853.879 401.88 853.175 401.144C852.487 400.392 851.599 400.016 850.511 400.016C849.423 400.016 848.527 400.392 847.823 401.144C847.119 401.88 846.767 402.848 846.767 404.048C846.767 404.832 846.927 405.528 847.247 406.136C847.567 406.744 848.007 407.224 848.567 407.576C849.143 407.912 849.791 408.08 850.511 408.08ZM866.126 410V393.2H871.91C873.238 393.2 874.326 393.424 875.174 393.872C876.038 394.32 876.678 394.928 877.094 395.696C877.51 396.448 877.718 397.288 877.718 398.216C877.718 399.256 877.438 400.2 876.878 401.048C876.334 401.896 875.478 402.504 874.31 402.872L877.886 410H874.934L871.67 403.232H868.67V410H866.126ZM868.67 401.312H871.766C872.918 401.312 873.758 401.032 874.286 400.472C874.83 399.912 875.102 399.184 875.102 398.288C875.102 397.392 874.838 396.68 874.31 396.152C873.782 395.608 872.926 395.336 871.742 395.336H868.67V401.312ZM885.473 410.288C884.305 410.288 883.265 410.032 882.353 409.52C881.457 408.992 880.753 408.264 880.241 407.336C879.729 406.408 879.473 405.328 879.473 404.096C879.473 402.848 879.721 401.752 880.217 400.808C880.729 399.864 881.433 399.128 882.329 398.6C883.241 398.072 884.297 397.808 885.497 397.808C886.665 397.808 887.681 398.072 888.545 398.6C889.409 399.112 890.081 399.8 890.561 400.664C891.041 401.528 891.281 402.48 891.281 403.52C891.281 403.68 891.273 403.856 891.257 404.048C891.257 404.224 891.249 404.424 891.233 404.648H881.969C882.049 405.8 882.425 406.68 883.097 407.288C883.785 407.88 884.577 408.176 885.473 408.176C886.193 408.176 886.793 408.016 887.273 407.696C887.769 407.36 888.137 406.912 888.377 406.352H890.921C890.601 407.472 889.961 408.408 889.001 409.16C888.057 409.912 886.881 410.288 885.473 410.288ZM885.473 399.896C884.625 399.896 883.873 400.152 883.217 400.664C882.561 401.16 882.161 401.912 882.017 402.92H888.737C888.689 401.992 888.361 401.256 887.753 400.712C887.145 400.168 886.385 399.896 885.473 399.896ZM897.953 410.288C896.945 410.288 896.113 410.12 895.457 409.784C894.801 409.448 894.313 409.008 893.993 408.464C893.673 407.904 893.513 407.296 893.513 406.64C893.513 405.488 893.961 404.576 894.857 403.904C895.753 403.232 897.033 402.896 898.697 402.896H901.817V402.68C901.817 401.752 901.561 401.056 901.049 400.592C900.553 400.128 899.905 399.896 899.105 399.896C898.401 399.896 897.785 400.072 897.257 400.424C896.745 400.76 896.433 401.264 896.321 401.936H893.777C893.857 401.072 894.145 400.336 894.641 399.728C895.153 399.104 895.793 398.632 896.561 398.312C897.345 397.976 898.201 397.808 899.129 397.808C900.793 397.808 902.081 398.248 902.993 399.128C903.905 399.992 904.361 401.176 904.361 402.68V410H902.153L901.937 407.96C901.601 408.616 901.113 409.168 900.473 409.616C899.833 410.064 898.993 410.288 897.953 410.288ZM898.457 408.224C899.145 408.224 899.721 408.064 900.185 407.744C900.665 407.408 901.033 406.968 901.289 406.424C901.561 405.88 901.729 405.28 901.793 404.624H898.961C897.953 404.624 897.233 404.8 896.801 405.152C896.385 405.504 896.177 405.944 896.177 406.472C896.177 407.016 896.377 407.448 896.777 407.768C897.193 408.072 897.753 408.224 898.457 408.224ZM912.751 410.288C911.599 410.288 910.583 410.016 909.703 409.472C908.823 408.928 908.135 408.184 907.639 407.24C907.143 406.296 906.895 405.224 906.895 404.024C906.895 402.824 907.143 401.76 907.639 400.832C908.135 399.888 908.823 399.152 909.703 398.624C910.599 398.08 911.623 397.808 912.775 397.808C913.719 397.808 914.543 397.992 915.247 398.36C915.967 398.728 916.527 399.248 916.927 399.92V392.72H919.471V410H917.191L916.927 408.152C916.543 408.712 916.015 409.208 915.343 409.64C914.671 410.072 913.807 410.288 912.751 410.288ZM913.207 408.08C914.295 408.08 915.183 407.704 915.871 406.952C916.575 406.2 916.927 405.232 916.927 404.048C916.927 402.848 916.575 401.88 915.871 401.144C915.183 400.392 914.295 400.016 913.207 400.016C912.119 400.016 911.223 400.392 910.519 401.144C909.815 401.88 909.463 402.848 909.463 404.048C909.463 404.832 909.623 405.528 909.943 406.136C910.263 406.744 910.703 407.224 911.263 407.576C911.839 407.912 912.487 408.08 913.207 408.08ZM928.246 410.288C927.078 410.288 926.038 410.032 925.126 409.52C924.23 408.992 923.526 408.264 923.014 407.336C922.502 406.408 922.246 405.328 922.246 404.096C922.246 402.848 922.494 401.752 922.99 400.808C923.502 399.864 924.206 399.128 925.102 398.6C926.014 398.072 927.07 397.808 928.27 397.808C929.438 397.808 930.454 398.072 931.318 398.6C932.182 399.112 932.854 399.8 933.334 400.664C933.814 401.528 934.054 402.48 934.054 403.52C934.054 403.68 934.046 403.856 934.03 404.048C934.03 404.224 934.022 404.424 934.006 404.648H924.742C924.822 405.8 925.198 406.68 925.87 407.288C926.558 407.88 927.35 408.176 928.246 408.176C928.966 408.176 929.566 408.016 930.046 407.696C930.542 407.36 930.91 406.912 931.15 406.352H933.694C933.374 407.472 932.734 408.408 931.774 409.16C930.83 409.912 929.654 410.288 928.246 410.288ZM928.246 399.896C927.398 399.896 926.646 400.152 925.99 400.664C925.334 401.16 924.934 401.912 924.79 402.92H931.51C931.462 401.992 931.134 401.256 930.526 400.712C929.918 400.168 929.158 399.896 928.246 399.896ZM936.694 410V398.096H938.974L939.19 400.352C939.606 399.568 940.182 398.952 940.918 398.504C941.67 398.04 942.574 397.808 943.63 397.808V400.472H942.934C942.23 400.472 941.598 400.592 941.038 400.832C940.494 401.056 940.054 401.448 939.718 402.008C939.398 402.552 939.238 403.312 939.238 404.288V410H936.694ZM950.563 410.288C949.059 410.288 947.819 409.92 946.843 409.184C945.867 408.448 945.307 407.472 945.163 406.256H947.731C947.859 406.8 948.163 407.272 948.643 407.672C949.123 408.056 949.755 408.248 950.539 408.248C951.307 408.248 951.867 408.088 952.219 407.768C952.571 407.448 952.747 407.08 952.747 406.664C952.747 406.056 952.499 405.648 952.003 405.44C951.523 405.216 950.851 405.016 949.987 404.84C949.315 404.696 948.643 404.504 947.971 404.264C947.315 404.024 946.763 403.688 946.315 403.256C945.883 402.808 945.667 402.208 945.667 401.456C945.667 400.416 946.067 399.552 946.867 398.864C947.667 398.16 948.787 397.808 950.227 397.808C951.555 397.808 952.627 398.128 953.443 398.768C954.275 399.408 954.763 400.312 954.907 401.48H952.459C952.379 400.968 952.139 400.568 951.739 400.28C951.355 399.992 950.835 399.848 950.179 399.848C949.539 399.848 949.043 399.984 948.691 400.256C948.339 400.512 948.163 400.848 948.163 401.264C948.163 401.68 948.403 402.008 948.883 402.248C949.379 402.488 950.027 402.704 950.827 402.896C951.627 403.072 952.363 403.28 953.035 403.52C953.723 403.744 954.275 404.08 954.691 404.528C955.107 404.976 955.315 405.632 955.315 406.496C955.331 407.584 954.907 408.488 954.043 409.208C953.195 409.928 952.035 410.288 950.563 410.288ZM233.64 446.288C232.632 446.288 231.8 446.12 231.144 445.784C230.488 445.448 230 445.008 229.68 444.464C229.36 443.904 229.2 443.296 229.2 442.64C229.2 441.488 229.648 440.576 230.544 439.904C231.44 439.232 232.72 438.896 234.384 438.896H237.504V438.68C237.504 437.752 237.248 437.056 236.736 436.592C236.24 436.128 235.592 435.896 234.792 435.896C234.088 435.896 233.472 436.072 232.944 436.424C232.432 436.76 232.12 437.264 232.008 437.936H229.464C229.544 437.072 229.832 436.336 230.328 435.728C230.84 435.104 231.48 434.632 232.248 434.312C233.032 433.976 233.888 433.808 234.816 433.808C236.48 433.808 237.768 434.248 238.68 435.128C239.592 435.992 240.048 437.176 240.048 438.68V446H237.84L237.624 443.96C237.288 444.616 236.8 445.168 236.16 445.616C235.52 446.064 234.68 446.288 233.64 446.288ZM234.144 444.224C234.832 444.224 235.408 444.064 235.872 443.744C236.352 443.408 236.72 442.968 236.976 442.424C237.248 441.88 237.416 441.28 237.48 440.624H234.648C233.64 440.624 232.92 440.8 232.488 441.152C232.072 441.504 231.864 441.944 231.864 442.472C231.864 443.016 232.064 443.448 232.464 443.768C232.88 444.072 233.44 444.224 234.144 444.224ZM243.014 446V434.096H245.27L245.462 436.184C245.83 435.448 246.366 434.872 247.07 434.456C247.79 434.024 248.614 433.808 249.542 433.808C250.982 433.808 252.11 434.256 252.926 435.152C253.758 436.048 254.174 437.384 254.174 439.16V446H251.654V439.424C251.654 437.12 250.71 435.968 248.822 435.968C247.878 435.968 247.094 436.304 246.47 436.976C245.862 437.648 245.558 438.608 245.558 439.856V446H243.014ZM262.595 446.288C261.443 446.288 260.427 446.016 259.547 445.472C258.667 444.928 257.979 444.184 257.483 443.24C256.987 442.296 256.739 441.224 256.739 440.024C256.739 438.824 256.987 437.76 257.483 436.832C257.979 435.888 258.667 435.152 259.547 434.624C260.443 434.08 261.467 433.808 262.618 433.808C263.563 433.808 264.387 433.992 265.091 434.36C265.811 434.728 266.371 435.248 266.771 435.92V428.72H269.315V446H267.035L266.771 444.152C266.387 444.712 265.859 445.208 265.187 445.64C264.515 446.072 263.651 446.288 262.595 446.288ZM263.051 444.08C264.139 444.08 265.027 443.704 265.715 442.952C266.419 442.2 266.771 441.232 266.771 440.048C266.771 438.848 266.419 437.88 265.715 437.144C265.027 436.392 264.139 436.016 263.051 436.016C261.963 436.016 261.067 436.392 260.363 437.144C259.659 437.88 259.307 438.848 259.307 440.048C259.307 440.832 259.467 441.528 259.787 442.136C260.107 442.744 260.547 443.224 261.107 443.576C261.683 443.912 262.331 444.08 263.051 444.08ZM282.097 446.024L277.561 429.2H280.297L283.633 443.12L287.473 429.2H290.281L294.001 443.12L297.337 429.2H300.073L295.465 446H292.489L288.817 432.824L285.025 446L282.097 446.024ZM302.006 446V434.096H304.286L304.502 436.352C304.918 435.568 305.494 434.952 306.23 434.504C306.982 434.04 307.886 433.808 308.942 433.808V436.472H308.246C307.542 436.472 306.91 436.592 306.35 436.832C305.806 437.056 305.366 437.448 305.03 438.008C304.71 438.552 304.55 439.312 304.55 440.288V446H302.006ZM312.564 431.84C312.084 431.84 311.684 431.696 311.364 431.408C311.06 431.104 310.908 430.728 310.908 430.28C310.908 429.832 311.06 429.464 311.364 429.176C311.684 428.872 312.084 428.72 312.564 428.72C313.044 428.72 313.436 428.872 313.74 429.176C314.06 429.464 314.22 429.832 314.22 430.28C314.22 430.728 314.06 431.104 313.74 431.408C313.436 431.696 313.044 431.84 312.564 431.84ZM311.292 446V434.096H313.836V446H311.292ZM322.186 446C321.018 446 320.09 445.72 319.402 445.16C318.714 444.584 318.37 443.568 318.37 442.112V436.232H316.33V434.096H318.37L318.682 431.072H320.914V434.096H324.274V436.232H320.914V442.112C320.914 442.768 321.05 443.224 321.322 443.48C321.61 443.72 322.098 443.84 322.786 443.84H324.154V446H322.186ZM332.16 446.288C330.992 446.288 329.952 446.032 329.04 445.52C328.144 444.992 327.44 444.264 326.928 443.336C326.416 442.408 326.16 441.328 326.16 440.096C326.16 438.848 326.408 437.752 326.904 436.808C327.416 435.864 328.12 435.128 329.016 434.6C329.928 434.072 330.984 433.808 332.184 433.808C333.352 433.808 334.368 434.072 335.232 434.6C336.096 435.112 336.768 435.8 337.248 436.664C337.728 437.528 337.968 438.48 337.968 439.52C337.968 439.68 337.96 439.856 337.944 440.048C337.944 440.224 337.936 440.424 337.92 440.648H328.656C328.736 441.8 329.112 442.68 329.784 443.288C330.472 443.88 331.264 444.176 332.16 444.176C332.88 444.176 333.48 444.016 333.96 443.696C334.456 443.36 334.824 442.912 335.064 442.352H337.608C337.288 443.472 336.648 444.408 335.688 445.16C334.744 445.912 333.568 446.288 332.16 446.288ZM332.16 435.896C331.312 435.896 330.56 436.152 329.904 436.664C329.248 437.16 328.848 437.912 328.704 438.92H335.424C335.376 437.992 335.048 437.256 334.44 436.712C333.832 436.168 333.072 435.896 332.16 435.896ZM340.608 446V434.096H342.888L343.104 436.352C343.52 435.568 344.096 434.952 344.832 434.504C345.584 434.04 346.488 433.808 347.544 433.808V436.472H346.848C346.144 436.472 345.512 436.592 344.952 436.832C344.408 437.056 343.968 437.448 343.632 438.008C343.312 438.552 343.152 439.312 343.152 440.288V446H340.608ZM354.477 446.288C352.973 446.288 351.733 445.92 350.757 445.184C349.781 444.448 349.221 443.472 349.077 442.256H351.645C351.773 442.8 352.077 443.272 352.557 443.672C353.037 444.056 353.669 444.248 354.453 444.248C355.221 444.248 355.781 444.088 356.133 443.768C356.485 443.448 356.661 443.08 356.661 442.664C356.661 442.056 356.413 441.648 355.917 441.44C355.437 441.216 354.765 441.016 353.901 440.84C353.229 440.696 352.557 440.504 351.885 440.264C351.229 440.024 350.677 439.688 350.229 439.256C349.797 438.808 349.581 438.208 349.581 437.456C349.581 436.416 349.981 435.552 350.781 434.864C351.581 434.16 352.701 433.808 354.141 433.808C355.469 433.808 356.541 434.128 357.357 434.768C358.189 435.408 358.677 436.312 358.821 437.48H356.373C356.293 436.968 356.053 436.568 355.653 436.28C355.269 435.992 354.749 435.848 354.093 435.848C353.453 435.848 352.957 435.984 352.605 436.256C352.253 436.512 352.077 436.848 352.077 437.264C352.077 437.68 352.317 438.008 352.797 438.248C353.293 438.488 353.941 438.704 354.741 438.896C355.541 439.072 356.277 439.28 356.949 439.52C357.637 439.744 358.189 440.08 358.605 440.528C359.021 440.976 359.229 441.632 359.229 442.496C359.245 443.584 358.821 444.488 357.957 445.208C357.109 445.928 355.949 446.288 354.477 446.288Z" fill="white"/>
    <rect x="228" y="492" width="157" height="56" rx="8" fill="#543EE0"/>
    <path d="M262.732 526.716C261.544 526.716 260.506 526.446 259.618 525.906C258.73 525.366 258.04 524.616 257.548 523.656C257.056 522.684 256.81 521.556 256.81 520.272C256.81 518.976 257.062 517.836 257.566 516.852C258.082 515.856 258.808 515.082 259.744 514.53C260.692 513.966 261.814 513.684 263.11 513.684C264.586 513.684 265.81 514.038 266.782 514.746C267.754 515.454 268.384 516.432 268.672 517.68H266.098C265.906 517.092 265.558 516.636 265.054 516.312C264.55 515.976 263.902 515.808 263.11 515.808C261.85 515.808 260.878 516.21 260.194 517.014C259.51 517.806 259.168 518.898 259.168 520.29C259.168 521.682 259.504 522.762 260.176 523.53C260.86 524.286 261.784 524.664 262.948 524.664C264.088 524.664 264.946 524.358 265.522 523.746C266.11 523.122 266.464 522.306 266.584 521.298H263.398V519.57H268.906V526.5H266.782L266.602 524.844C266.194 525.444 265.684 525.906 265.072 526.23C264.46 526.554 263.68 526.716 262.732 526.716ZM275.43 526.716C274.53 526.716 273.732 526.524 273.036 526.14C272.34 525.756 271.794 525.216 271.398 524.52C271.002 523.824 270.804 523.02 270.804 522.108C270.804 521.184 270.996 520.362 271.38 519.642C271.776 518.922 272.316 518.364 273 517.968C273.696 517.56 274.512 517.356 275.448 517.356C276.324 517.356 277.098 517.548 277.77 517.932C278.442 518.316 278.964 518.844 279.336 519.516C279.72 520.176 279.912 520.914 279.912 521.73C279.912 521.862 279.906 522 279.894 522.144C279.894 522.288 279.888 522.438 279.876 522.594H273.09C273.138 523.29 273.378 523.836 273.81 524.232C274.254 524.628 274.788 524.826 275.412 524.826C275.88 524.826 276.27 524.724 276.582 524.52C276.906 524.304 277.146 524.028 277.302 523.692H279.642C279.474 524.256 279.192 524.772 278.796 525.24C278.412 525.696 277.932 526.056 277.356 526.32C276.792 526.584 276.15 526.716 275.43 526.716ZM275.448 519.228C274.884 519.228 274.386 519.39 273.954 519.714C273.522 520.026 273.246 520.506 273.126 521.154H277.572C277.536 520.566 277.32 520.098 276.924 519.75C276.528 519.402 276.036 519.228 275.448 519.228ZM285.669 526.5C284.733 526.5 283.983 526.272 283.419 525.816C282.855 525.36 282.573 524.55 282.573 523.386V519.498H281.043V517.572H282.573L282.843 515.178H284.877V517.572H287.289V519.498H284.877V523.404C284.877 523.836 284.967 524.136 285.147 524.304C285.339 524.46 285.663 524.538 286.119 524.538H287.235V526.5H285.669ZM297.247 526.716C296.455 526.716 295.759 526.59 295.159 526.338C294.559 526.074 294.079 525.714 293.719 525.258C293.359 524.802 293.143 524.274 293.071 523.674H295.393C295.465 524.022 295.657 524.322 295.969 524.574C296.293 524.814 296.707 524.934 297.211 524.934C297.715 524.934 298.081 524.832 298.309 524.628C298.549 524.424 298.669 524.19 298.669 523.926C298.669 523.542 298.501 523.284 298.165 523.152C297.829 523.008 297.361 522.87 296.761 522.738C296.377 522.654 295.987 522.552 295.591 522.432C295.195 522.312 294.829 522.162 294.493 521.982C294.169 521.79 293.905 521.55 293.701 521.262C293.497 520.962 293.395 520.596 293.395 520.164C293.395 519.372 293.707 518.706 294.331 518.166C294.967 517.626 295.855 517.356 296.995 517.356C298.051 517.356 298.891 517.602 299.515 518.094C300.151 518.586 300.529 519.264 300.649 520.128H298.471C298.339 519.468 297.841 519.138 296.977 519.138C296.545 519.138 296.209 519.222 295.969 519.39C295.741 519.558 295.627 519.768 295.627 520.02C295.627 520.284 295.801 520.494 296.149 520.65C296.497 520.806 296.959 520.95 297.535 521.082C298.159 521.226 298.729 521.388 299.245 521.568C299.773 521.736 300.193 521.994 300.505 522.342C300.817 522.678 300.973 523.164 300.973 523.8C300.985 524.352 300.841 524.85 300.541 525.294C300.241 525.738 299.809 526.086 299.245 526.338C298.681 526.59 298.015 526.716 297.247 526.716ZM306.711 526.5C305.775 526.5 305.025 526.272 304.461 525.816C303.897 525.36 303.615 524.55 303.615 523.386V519.498H302.085V517.572H303.615L303.885 515.178H305.919V517.572H308.331V519.498H305.919V523.404C305.919 523.836 306.009 524.136 306.188 524.304C306.381 524.46 306.705 524.538 307.161 524.538H308.277V526.5H306.711ZM313.387 526.716C312.619 526.716 311.989 526.596 311.497 526.356C311.005 526.104 310.639 525.774 310.399 525.366C310.159 524.958 310.039 524.508 310.039 524.016C310.039 523.188 310.363 522.516 311.011 522C311.659 521.484 312.631 521.226 313.927 521.226H316.195V521.01C316.195 520.398 316.021 519.948 315.673 519.66C315.325 519.372 314.893 519.228 314.377 519.228C313.909 519.228 313.501 519.342 313.153 519.57C312.805 519.786 312.589 520.11 312.505 520.542H310.255C310.315 519.894 310.531 519.33 310.903 518.85C311.287 518.37 311.779 518.004 312.379 517.752C312.979 517.488 313.651 517.356 314.395 517.356C315.667 517.356 316.669 517.674 317.401 518.31C318.133 518.946 318.499 519.846 318.499 521.01V526.5H316.537L316.321 525.06C316.057 525.54 315.685 525.936 315.205 526.248C314.737 526.56 314.131 526.716 313.387 526.716ZM313.909 524.916C314.569 524.916 315.079 524.7 315.439 524.268C315.811 523.836 316.045 523.302 316.141 522.666H314.179C313.567 522.666 313.129 522.78 312.865 523.008C312.601 523.224 312.469 523.494 312.469 523.818C312.469 524.166 312.601 524.436 312.865 524.628C313.129 524.82 313.477 524.916 313.909 524.916ZM320.697 526.5V517.572H322.749L322.965 519.246C323.289 518.67 323.727 518.214 324.279 517.878C324.843 517.53 325.503 517.356 326.259 517.356V519.786H325.611C325.107 519.786 324.657 519.864 324.261 520.02C323.865 520.176 323.553 520.446 323.325 520.83C323.109 521.214 323.001 521.748 323.001 522.432V526.5H320.697ZM331.812 526.5C330.876 526.5 330.126 526.272 329.562 525.816C328.998 525.36 328.716 524.55 328.716 523.386V519.498H327.186V517.572H328.716L328.986 515.178H331.02V517.572H333.432V519.498H331.02V523.404C331.02 523.836 331.11 524.136 331.29 524.304C331.482 524.46 331.806 524.538 332.262 524.538H333.378V526.5H331.812ZM339.52 526.716C338.62 526.716 337.822 526.524 337.126 526.14C336.43 525.756 335.884 525.216 335.488 524.52C335.092 523.824 334.894 523.02 334.894 522.108C334.894 521.184 335.086 520.362 335.47 519.642C335.866 518.922 336.406 518.364 337.09 517.968C337.786 517.56 338.602 517.356 339.538 517.356C340.414 517.356 341.188 517.548 341.86 517.932C342.532 518.316 343.054 518.844 343.426 519.516C343.81 520.176 344.002 520.914 344.002 521.73C344.002 521.862 343.996 522 343.984 522.144C343.984 522.288 343.978 522.438 343.966 522.594H337.18C337.228 523.29 337.468 523.836 337.9 524.232C338.344 524.628 338.878 524.826 339.502 524.826C339.97 524.826 340.36 524.724 340.672 524.52C340.996 524.304 341.236 524.028 341.392 523.692H343.732C343.564 524.256 343.282 524.772 342.886 525.24C342.502 525.696 342.022 526.056 341.446 526.32C340.882 526.584 340.24 526.716 339.52 526.716ZM339.538 519.228C338.974 519.228 338.476 519.39 338.044 519.714C337.612 520.026 337.336 520.506 337.216 521.154H341.662C341.626 520.566 341.41 520.098 341.014 519.75C340.618 519.402 340.126 519.228 339.538 519.228ZM350.044 526.716C349.204 526.716 348.454 526.512 347.794 526.104C347.134 525.696 346.612 525.138 346.228 524.43C345.844 523.722 345.652 522.918 345.652 522.018C345.652 521.118 345.844 520.32 346.228 519.624C346.612 518.916 347.134 518.364 347.794 517.968C348.454 517.56 349.204 517.356 350.044 517.356C350.716 517.356 351.304 517.482 351.808 517.734C352.312 517.986 352.72 518.34 353.032 518.796V513.54H355.336V526.5H353.284L353.032 525.222C352.744 525.618 352.36 525.966 351.88 526.266C351.412 526.566 350.8 526.716 350.044 526.716ZM350.53 524.7C351.274 524.7 351.88 524.454 352.348 523.962C352.828 523.458 353.068 522.816 353.068 522.036C353.068 521.256 352.828 520.62 352.348 520.128C351.88 519.624 351.274 519.372 350.53 519.372C349.798 519.372 349.192 519.618 348.712 520.11C348.232 520.602 347.992 521.238 347.992 522.018C347.992 522.798 348.232 523.44 348.712 523.944C349.192 524.448 349.798 524.7 350.53 524.7Z" fill="white"/>
</svg>
